<svg class="prefix__icon" viewBox="0 0 1024 1024" xmlns="http://www.w3.org/2000/svg" width="200" height="200">
    <path
        d="M796.445 875.063V113.777h-568.89v761.285L512 732.84l284.445 142.223zM227.555 56.89h568.89c31.418 0 56.888 25.47 56.888 56.889v761.285c0 31.419-25.47 56.889-56.888 56.889a56.89 56.89 0 01-25.442-6.006L512 796.445l-259.003 129.5c-28.102 14.052-62.274 2.661-76.324-25.44a56.89 56.89 0 01-6.006-25.442V113.777c0-31.419 25.47-56.889 56.888-56.889zM369.78 284.445h284.443c15.71 0 28.445 12.734 28.445 28.444 0 15.709-12.735 28.444-28.445 28.444H369.777c-15.71 0-28.445-12.734-28.445-28.444 0-15.71 12.735-28.444 28.445-28.444zm0 170.666h284.443c15.71 0 28.445 12.735 28.445 28.444S669.932 512 654.222 512H369.777c-15.71 0-28.445-12.735-28.445-28.445s12.735-28.444 28.445-28.444z"
        fill="#323233" />
</svg>